<svg xmlns="http://www.w3.org/2000/svg" width="18" height="17" viewBox="0 0 18 17"><defs><linearGradient id="1vwqa" x1="9.42" x2="9.42" y1="2.77" y2="16.86" gradientUnits="userSpaceOnUse"><stop offset="0" stop-color="#f5586f"/><stop offset="1" stop-color="#f2233a"/></linearGradient></defs><g><g><path fill="url(#1vwqa)" d="M.93 3.765A3.765 3.765 0 0 1 4.695 0h9.456a3.765 3.765 0 0 1 3.765 3.765v9.333a3.765 3.765 0 0 1-3.765 3.764H4.695A3.765 3.765 0 0 1 .93 13.098zM12.297 9.88L11 10.143a1.292 1.292 0 0 0-1 1.428c0 .713.632 1.25 1.35 1.205l.36-.023c.881-.056 1.568-.753 1.568-1.656V2.904a.443.443 0 0 0-.52-.42L7.242 3.596a.48.48 0 0 0-.396.48v6.49c0 .218-.152.434-.366.434l-1.247.311a1.341 1.341 0 0 0-1.036 1.293v.034c0 .739.616 1.362 1.36 1.307l.351-.01A1.641 1.641 0 0 0 7.506 12.3V6.474c0-.136.097-.253.231-.28l4.585-.916a.247.247 0 0 1 .296.24V9.49c0 .189-.134.353-.321.391z"/></g></g></svg>