<svg xmlns="http://www.w3.org/2000/svg" width="35" height="36" viewBox="0 0 35 36"><g><g><path fill="#1ad64b" d="M28.872 16c-.225 0-.452 0-.668-.12A29.379 29.379 0 0 0 18.177 13a29.367 29.367 0 0 0-10.423.828C7 14 6.136 13.568 5.922 12.776A1.428 1.428 0 0 1 7 11c3.727-1 7.598-1.333 11.482-.941a32.084 32.084 0 0 1 11.057 3.164c.741.366 1.041 1.258.673 1.99-.212.522-.79.787-1.34.787zm-.746 4.349a1.497 1.497 0 0 1-1.328.799c-.235 0-.47-.054-.691-.148a23.175 23.175 0 0 0-8.488-2.53 23.523 23.523 0 0 0-8.882.783 1.52 1.52 0 0 1-1.852-1.015c-.23-.787.23-1.61 1.023-1.837 3.25-.93 6.62-1.227 10.013-.885 3.37.34 6.59 1.291 9.57 2.832a1.478 1.478 0 0 1 .635 2zm-2.061 5.184a1.543 1.543 0 0 1-1.31.758c-.245 0-.498-.06-.755-.189a17.69 17.69 0 0 0-6.942-2.175c-2.48-.246-4.93.003-7.283.748a1.504 1.504 0 0 1-1.88-.961 1.48 1.48 0 0 1 .97-1.866C11.609 21 14.47 20.684 17.36 21c2.885.266 5.639 1.12 8.128 2.514.722.398.98 1.303.576 2.019zM17.665.93C8.159.93.45 8.57.45 18c0 9.423 7.708 17.063 17.216 17.063 9.508 0 17.216-7.64 17.216-17.063 0-9.43-7.708-17.07-17.216-17.07z"/></g></g></svg>