<svg xmlns="http://www.w3.org/2000/svg" width="17" height="12" viewBox="0 0 17 12"><g><g><g><path fill="#fe0605" d="M16.365 2.1a2.004 2.004 0 0 0-.509-.896C15.612 1 15.306.777 15 .684 13.74.35 8.817.35 8.817.35s-4.923 0-6.155.334C2.328.777 2 1 1.778 1.204c-.244.249-.42.558-.509.896C.94 3.35.94 6 .94 6s0 2.56.33 3.809c.088.338.264.647.508.895.222.296.55.428.884.52 1.232.335 6.155.335 6.155.335s4.923 0 6.183-.335c.307-.092.612-.224.856-.52.244-.248.42-.557.509-.895.33-1.25.33-3.809.33-3.809s0-2.65-.33-3.9z"/></g><g><path fill="#fefefe" d="M7.54 8.505V3.92l4.066 2.293z"/></g></g></g></svg>